<svg width="4000" height="1563" version="1.1" xmlns="http://www.w3.org/2000/svg" desc="Created with imagetracer.js version 1.2.6" ><path fill="rgb(0,0,0)" stroke="rgb(0,0,0)" stroke-width="0" opacity="0" d="M 0 0 L 4000 0 L 4000 1563 L 0 1563 L 0 0 Z M 3262 376 Q 3201 381 3156 401 Q 3102 424 3062 461 Q 3012 506 2982 571 Q 2960 618 2954 682 Q 2952 717 2956 747 Q 2961 786 2973 819 Q 2996 881 3037 926 Q 3080 974 3143 1004 Q 3196 1031 3272 1035 L 3332 1032 Q 3370 1026 3402 1014 Q 3463 989 3507 947 L 3513 934 L 3511 925 L 3473 885 L 3449 860 L 3444 858 Q 3434 857 3430 861 Q 3400 887 3361 902 Q 3331 914 3291 915 Q 3248 914 3217 902 Q 3178 887 3151 861 Q 3093 811 3083 714 Q 3082 661 3097 625 Q 3112 584 3139 556 Q 3167 524 3209 506 Q 3240 492 3283 490 L 3317 492 Q 3343 496 3365 505 L 3402 524 L 3429 545 L 3439 550 L 3449 547 L 3508 486 L 3512 479 Q 3514 468 3509 464 Q 3463 418 3397 393 Q 3367 383 3333 378 Q 3300 374 3262 376 Z M 118 385 L 114 387 Q 107 391 105 401 L 105 1010 L 109 1020 Q 113 1025 122 1026 L 349 1026 L 396 1021 Q 492 1001 552 945 Q 600 902 630 841 Q 655 791 660 723 Q 662 646 640 594 Q 617 534 577 491 Q 516 420 413 393 Q 387 387 357 385 L 118 385 Z M 972 385 L 966 388 L 958 400 L 958 1011 L 961 1018 Q 965 1024 975 1026 L 1054 1026 L 1061 1024 Q 1068 1020 1070 1012 L 1070 400 L 1067 393 L 1057 385 L 972 385 Z M 1193 385 L 1189 387 L 1180 398 L 1180 1013 L 1183 1019 L 1196 1026 L 1276 1026 L 1284 1023 L 1291 1013 L 1291 398 L 1287 391 L 1279 385 L 1193 385 Z M 1652 385 L 1647 387 Q 1640 391 1638 400 L 1638 1012 L 1642 1020 L 1656 1026 L 1882 1026 L 1908 1024 Q 1976 1014 2018 977 Q 2046 953 2063 917 Q 2075 891 2077 857 Q 2078 821 2067 797 Q 2057 773 2042 756 Q 2010 718 1958 700 Q 1981 689 1999 673 Q 2022 652 2039 625 Q 2053 601 2058 569 Q 2060 531 2051 506 Q 2040 473 2019 450 Q 1979 403 1907 388 L 1883 385 L 1652 385 Z M 785 403 Q 765 406 754 416 Q 733 431 729 462 Q 729 491 743 507 Q 758 526 789 530 Q 821 530 837 512 Q 852 498 856 473 Q 857 441 841 426 Q 824 403 785 403 Z M 1449 403 Q 1427 406 1415 418 Q 1398 432 1393 458 Q 1392 473 1395 485 Q 1400 500 1410 511 Q 1424 527 1453 530 Q 1481 529 1497 515 Q 1514 501 1519 476 Q 1521 443 1506 428 Q 1495 414 1479 407 Q 1467 402 1449 403 Z M 2290 650 L 2227 657 L 2193 664 L 2177 670 L 2169 682 L 2177 736 L 2181 749 Q 2184 755 2193 756 Q 2234 744 2284 741 Q 2315 737 2332 748 Q 2347 761 2349 788 L 2349 804 Q 2326 796 2297 794 Q 2213 791 2172 829 Q 2143 852 2136 897 Q 2133 960 2162 993 Q 2190 1030 2252 1035 L 2281 1034 L 2316 1025 L 2340 1013 L 2372 989 L 2385 1019 Q 2388 1025 2397 1026 L 2432 1026 L 2443 1021 L 2448 1013 L 2447 773 Q 2443 718 2416 687 Q 2399 667 2371 658 L 2336 651 L 2290 650 Z M 2706 650 Q 2645 656 2611 689 Q 2567 725 2556 795 Q 2554 861 2583 896 L 2558 912 Q 2524 936 2515 985 Q 2512 1040 2539 1066 Q 2556 1084 2582 1094 L 2583 1097 L 2559 1115 Q 2543 1129 2534 1151 L 2528 1178 Q 2529 1228 2555 1254 Q 2601 1304 2694 1309 Q 2805 1314 2864 1265 Q 2908 1232 2916 1164 Q 2916 1102 2885 1072 Q 2857 1041 2810 1030 Q 2791 1025 2769 1025 L 2639 1025 L 2623 1018 Q 2613 1012 2611 999 Q 2610 982 2618 974 Q 2626 964 2639 960 L 2655 960 L 2703 967 Q 2744 969 2773 959 Q 2805 948 2828 927 Q 2850 907 2863 879 Q 2874 857 2875 826 Q 2873 761 2839 729 L 2892 713 L 2899 703 L 2899 663 L 2896 657 L 2886 650 L 2706 650 Z M 3734 650 Q 3700 652 3676 663 Q 3647 675 3625 694 Q 3568 739 3556 829 Q 3555 876 3568 910 Q 3582 947 3607 974 Q 3633 1003 3672 1020 Q 3700 1033 3740 1035 Q 3780 1035 3809 1023 Q 3840 1011 3864 990 Q 3894 964 3913 926 Q 3930 893 3932 846 Q 3932 805 3920 776 Q 3906 738 3881 712 Q 3854 682 3815 664 Q 3782 649 3734 650 Z M 754 659 L 746 662 L 738 672 L 738 1013 L 741 1019 Q 745 1025 755 1026 L 832 1026 L 842 1022 L 848 1013 L 848 672 L 846 668 Q 842 661 833 659 L 754 659 Z M 1418 659 L 1408 663 L 1401 674 L 1401 1012 L 1404 1018 Q 1408 1025 1419 1026 L 1495 1026 L 1504 1023 L 1512 1012 L 1512 674 L 1509 667 Q 1505 660 1496 659 L 1418 659 Z " /><path fill="rgb(0,0,0)" stroke="rgb(0,0,0)" stroke-width="0" opacity="0" d="M 1756 494 L 1864.5 494 Q 1897.1 498.4 1914 518.5 Q 1933.6 538.4 1933 578.5 Q 1928.3 618.8 1902.5 638 Q 1886.4 651.4 1859.5 654 L 1756 654 L 1756 494 Z " /><path fill="rgb(0,0,0)" stroke="rgb(0,0,0)" stroke-width="0" opacity="0" d="M 223 496 L 347.5 496 L 386.5 503 Q 447.1 520.9 483 563.5 Q 507.4 590.6 521 628.5 Q 533.2 661.8 534 706.5 Q 532.5 757.5 516 793.5 Q 500.1 830.1 473.5 856 Q 436.5 894.5 375.5 909 L 332.5 914 L 224.5 914 L 223 912.5 L 223 496 Z " /><path fill="rgb(0,0,0)" stroke="rgb(0,0,0)" stroke-width="0" opacity="0" d="M 2715.5 748 Q 2751.4 749.1 2767 770.5 Q 2783 788 2781 823.5 Q 2776.3 853.3 2756.5 868 L 2731.5 879 L 2713.5 880 Q 2681.8 876.2 2667 855.5 Q 2652.5 838.5 2654 805.5 Q 2658.7 775.7 2678.5 761 Q 2692.4 749.9 2715.5 748 Z " /><path fill="rgb(0,0,0)" stroke="rgb(0,0,0)" stroke-width="0" opacity="0" d="M 3736.5 749 Q 3789.4 749.6 3811 781.5 Q 3831.3 804.2 3832 846.5 Q 3827.6 889.6 3802.5 912 Q 3781.4 934.9 3738.5 936 Q 3696.6 930.9 3677 903.5 Q 3664.9 888.6 3659 867.5 Q 3654.7 852.3 3656 831.5 Q 3662.3 789.3 3689.5 768 Q 3707.1 752.6 3736.5 749 Z " /><path fill="rgb(0,0,0)" stroke="rgb(0,0,0)" stroke-width="0" opacity="0" d="M 1756 755 L 1873.5 756 Q 1911.5 763.5 1932 788.5 Q 1942.2 799.8 1947 816.5 Q 1950.2 827.8 1949 843.5 Q 1943.3 881.3 1918.5 900 Q 1903.2 912.7 1879.5 917 L 1756 917 L 1756 755 Z " /><path fill="rgb(0,0,0)" stroke="rgb(0,0,0)" stroke-width="0" opacity="0" d="M 2289.5 860 Q 2324.6 859.4 2347 871.5 L 2347 921.5 L 2334.5 936 Q 2316.5 954.5 2282.5 957 Q 2259.1 955.4 2248 941.5 Q 2235.5 929 2237 902.5 Q 2240.5 884 2252.5 874 Q 2265.8 861.8 2289.5 860 Z " /><path fill="rgb(0,0,0)" stroke="rgb(0,0,0)" stroke-width="0" opacity="0" d="M 2715.5 1115 Q 2744.1 1112.9 2764.5 1119 Q 2782.4 1124.1 2792 1137.5 Q 2801.3 1147.2 2799 1168.5 Q 2794.4 1188.4 2780.5 1199 Q 2752.6 1221.1 2698.5 1217 Q 2662.4 1213.6 2644 1192.5 Q 2632.6 1180.9 2634 1156.5 Q 2638.8 1138.3 2652.5 1129 L 2671.5 1119 L 2715.5 1115 Z " /><path fill="rgb(0,0,0)" stroke="rgb(0,0,0)" stroke-width="0" opacity="0.7372549019607844" d="M 958.5 399 L 959 1010.5 L 958 1010.5 L 958.5 399 Z " /><path fill="rgb(0,0,0)" stroke="rgb(0,0,0)" stroke-width="0" opacity="0.7372549019607844" d="M 1069.5 399 L 1070 1011.5 L 1069 1011.5 L 1069.5 399 Z " /><path fill="rgb(0,0,0)" stroke="rgb(0,0,0)" stroke-width="0" opacity="0.7372549019607844" d="M 1638.5 399 L 1639 1011.5 L 1638 1011.5 L 1638.5 399 Z " /><path fill="rgb(0,0,0)" stroke="rgb(0,0,0)" stroke-width="0" opacity="0.7372549019607844" d="M 105.5 400 L 106 1009.5 L 105 1009.5 L 105.5 400 Z " /><path fill="rgb(0,0,0)" stroke="rgb(0,0,0)" stroke-width="0" opacity="0.7372549019607844" d="M 1756.5 493 L 1858 493.5 L 1756.5 494 L 1756.5 493 Z " /><path fill="rgb(0,0,0)" stroke="rgb(0,0,0)" stroke-width="0" opacity="0.7372549019607844" d="M 223.5 495 L 340 495.5 L 223.5 496 L 223.5 495 Z " /><path fill="rgb(0,0,0)" stroke="rgb(0,0,0)" stroke-width="0" opacity="0.7372549019607844" d="M 2705.5 650 L 2886 650.5 L 2705.5 651 L 2705.5 650 Z " /><path fill="rgb(0,0,0)" stroke="rgb(0,0,0)" stroke-width="0" opacity="0.7372549019607844" d="M 753.5 659 L 833 659.5 L 753.5 660 L 753.5 659 Z " /><path fill="rgb(0,0,0)" stroke="rgb(0,0,0)" stroke-width="0" opacity="0.7372549019607844" d="M 1417.5 659 L 1496 659.5 L 1417.5 660 L 1417.5 659 Z " /><path fill="rgb(0,0,0)" stroke="rgb(0,0,0)" stroke-width="0" opacity="0.7372549019607844" d="M 1401.5 673 L 1402 1011.5 L 1401 1011.5 L 1401.5 673 Z " /><path fill="rgb(0,0,0)" stroke="rgb(0,0,0)" stroke-width="0" opacity="0.7372549019607844" d="M 1511.5 673 L 1512 1011.5 L 1511 1011.5 L 1511.5 673 Z " /><path fill="rgb(0,0,0)" stroke="rgb(0,0,0)" stroke-width="0" opacity="0.7372549019607844" d="M 1756.5 754 L 1862 754.5 L 1756.5 755 L 1756.5 754 Z " /><path fill="rgb(0,0,0)" stroke="rgb(0,0,0)" stroke-width="0" opacity="0.7372549019607844" d="M 2346.5 870 L 2348 871.5 L 2348 920.5 L 2347 920.5 L 2347 871.5 L 2346.5 870 Z " /><path fill="rgb(0,0,0)" stroke="rgb(0,0,0)" stroke-width="0" opacity="0.7372549019607844" d="M 1756.5 917 L 1876 917.5 L 1756.5 918 L 1756.5 917 Z " /><path fill="rgb(0,0,0)" stroke="rgb(0,0,0)" stroke-width="0" opacity="0.7372549019607844" d="M 121.5 1025 L 349 1025.5 L 121.5 1026 L 121.5 1025 Z " /><path fill="rgb(0,0,0)" stroke="rgb(0,0,0)" stroke-width="0" opacity="0.7372549019607844" d="M 754.5 1025 L 832 1025.5 L 754.5 1026 L 754.5 1025 Z " /><path fill="rgb(0,0,0)" stroke="rgb(0,0,0)" stroke-width="0" opacity="0.7372549019607844" d="M 974.5 1025 L 1054 1025.5 L 974.5 1026 L 974.5 1025 Z " /><path fill="rgb(0,0,0)" stroke="rgb(0,0,0)" stroke-width="0" opacity="0.7372549019607844" d="M 1195.5 1025 L 1276 1025.5 L 1195.5 1026 L 1195.5 1025 Z " /><path fill="rgb(0,0,0)" stroke="rgb(0,0,0)" stroke-width="0" opacity="0.7372549019607844" d="M 1418.5 1025 L 1495 1025.5 L 1418.5 1026 L 1418.5 1025 Z " /><path fill="rgb(0,0,0)" stroke="rgb(0,0,0)" stroke-width="0" opacity="0.7372549019607844" d="M 1655.5 1025 L 1882 1025.5 L 1655.5 1026 L 1655.5 1025 Z " /><path fill="rgb(0,0,0)" stroke="rgb(0,0,0)" stroke-width="0" opacity="0.7372549019607844" d="M 2641.5 1025 L 2769 1025.5 L 2641.5 1026 L 2641.5 1025 Z " /><path fill="rgb(0,0,0)" stroke="rgb(0,0,0)" stroke-width="0" opacity="1" d="M 3269.5 376 Q 3346.6 373.9 3400.5 395 Q 3464.4 420.1 3509 464.5 Q 3513.2 468.3 3512 477.5 L 3500 493.5 L 3447.5 547 Q 3444.2 550.2 3436.5 549 L 3397.5 521 L 3360.5 503 L 3318.5 492 Q 3298.5 488.5 3273.5 490 Q 3222 494.5 3187.5 516 Q 3156.5 534 3134 560.5 Q 3107.1 591.1 3093 634.5 Q 3080.2 669.7 3083 720.5 Q 3095.1 816.4 3154.5 865 Q 3182.1 889.9 3220.5 904 Q 3252.9 916.6 3299.5 915 Q 3336.5 912.5 3364.5 901 Q 3402.1 885.6 3430.5 861 L 3441.5 858 Q 3450.6 859.9 3455 866.5 L 3510 923.5 Q 3513.1 927.9 3512 936.5 Q 3508.5 946.5 3500.5 952 Q 3456.5 993 3394.5 1016 Q 3364.3 1026.8 3328.5 1032 Q 3297.2 1035.7 3260.5 1034 Q 3191.6 1027.9 3141.5 1003 Q 3084.9 975.6 3044 932.5 Q 2999.9 887.1 2975 822.5 Q 2952.7 767.3 2954 688.5 Q 2958.8 620.8 2982 571.5 Q 3013 504 3065.5 458 Q 3104.8 423.3 3156.5 401 Q 3204.7 380.2 3269.5 376 Z " /><path fill="rgb(0,0,0)" stroke="rgb(0,0,0)" stroke-width="0" opacity="1" d="M 120.5 385 L 348.5 385 Q 379.4 386.1 405.5 392 Q 508.4 417.1 570 483.5 Q 609.6 523.9 634 579.5 Q 658 632.5 660 707.5 Q 657.5 779.5 634 830.5 Q 605.4 895.4 556.5 940 Q 518.7 975.2 468.5 998 Q 434.6 1013.6 392.5 1021 L 356.5 1025 L 118.5 1025 L 109 1018.5 L 106 1012.5 L 106 397.5 L 111.5 389 L 120.5 385 Z M 223 495 L 223 914 L 344 914 L 378 909 Q 431 896 466 864 Q 524 816 534 720 Q 536 663 520 625 Q 506 587 481 561 Q 446 521 389 503 Q 367 496 340 495 L 223 495 Z " /><path fill="rgb(0,0,0)" stroke="rgb(0,0,0)" stroke-width="0" opacity="1" d="M 973.5 385 L 1054.5 385 Q 1063.4 386.6 1067 393.5 L 1069 397.5 L 1069 1012.5 L 1062.5 1022 L 1056.5 1025 L 971.5 1025 L 963 1019.5 L 959 1012.5 L 959 397.5 L 966.5 388 L 973.5 385 Z " /><path fill="rgb(0,0,0)" stroke="rgb(0,0,0)" stroke-width="0" opacity="1" d="M 1194.5 385 L 1276.5 385 L 1288 392.5 L 1291 399.5 L 1291 1010.5 Q 1288.9 1018.9 1282.5 1023 L 1277.5 1025 L 1193.5 1025 L 1183 1017.5 L 1180 1010.5 L 1180 399.5 L 1186.5 389 L 1194.5 385 Z " /><path fill="rgb(0,0,0)" stroke="rgb(0,0,0)" stroke-width="0" opacity="1" d="M 1654.5 385 L 1870.5 385 L 1903.5 388 Q 1979.9 402.6 2021 452.5 Q 2037.7 472.3 2048 498.5 Q 2058.9 525.1 2058 563.5 Q 2054 600.5 2038 625.5 Q 2023.5 649.5 2003.5 668 Q 1983.5 686.5 1958 699.5 Q 2005.6 716.9 2037 750.5 Q 2056.9 771.1 2068 800.5 Q 2078.1 825.9 2076 863.5 Q 2073.1 893.1 2063 915.5 Q 2047.9 948.9 2022.5 972 Q 1981.3 1011.8 1911.5 1023 L 1892.5 1025 L 1652.5 1025 L 1642 1018.5 L 1639 1012.5 L 1639 397.5 L 1643 390 L 1654.5 385 Z M 1756 493 L 1756 654 L 1865 654 Q 1890 650 1906 636 Q 1927 618 1933 584 Q 1935 542 1917 522 Q 1902 502 1874 495 L 1858 493 L 1756 493 Z M 1756 754 L 1756 918 L 1876 918 Q 1905 914 1922 898 Q 1946 878 1950 839 Q 1949 801 1928 784 Q 1907 761 1871 755 L 1756 754 Z " /><path fill="rgb(0,0,0)" stroke="rgb(0,0,0)" stroke-width="0" opacity="1" d="M 781.5 404 Q 801 402 813.5 407 Q 831.4 413.6 842 427.5 Q 856.9 443.1 855 475.5 Q 849.7 501.2 832.5 515 Q 816.5 530.6 783.5 529 Q 760 524.9 747 511 Q 737.3 500.4 732 484.5 Q 728.6 473.4 730 457.5 Q 734.5 432.5 750.5 419 Q 762.3 407.8 781.5 404 Z " /><path fill="rgb(0,0,0)" stroke="rgb(0,0,0)" stroke-width="0" opacity="1" d="M 1445.5 404 Q 1462.8 402.2 1474.5 406 Q 1491.8 412.2 1503 424.5 Q 1519.3 439.7 1519 471.5 Q 1514.6 501.6 1494.5 516 Q 1478.9 530.9 1446.5 529 Q 1420.4 524.1 1407 506.5 Q 1392.5 491 1393 460.5 Q 1397.4 430.4 1417.5 416 Q 1428.7 407.2 1445.5 404 Z " /><path fill="rgb(0,0,0)" stroke="rgb(0,0,0)" stroke-width="0" opacity="1" d="M 2282.5 651 Q 2332.4 647.6 2368.5 658 Q 2399.6 667.4 2418 689.5 Q 2441.9 718.6 2446 767.5 L 2448 801.5 L 2448 1010.5 L 2440.5 1022 L 2434.5 1025 L 2393.5 1025 L 2386 1019.5 L 2372 988 Q 2348 1010.8 2314.5 1025 Q 2287 1036.5 2245.5 1034 Q 2191.7 1028.3 2165 995.5 Q 2135.2 963.8 2136 901.5 Q 2142.3 851.3 2174.5 827 Q 2214.8 792.8 2290.5 794 Q 2323.7 796.1 2350 804 L 2349 783.5 L 2346 768.5 Q 2342.5 757 2334.5 750 L 2319.5 742 L 2292.5 740 L 2241.5 745 Q 2217.8 747.8 2198.5 755 L 2189.5 755 L 2183 750.5 L 2178 738.5 L 2170 690.5 L 2170 679.5 L 2177.5 670 L 2187.5 666 L 2223.5 658 L 2282.5 651 Z M 2286 860 Q 2266 862 2255 872 Q 2239 883 2236 908 Q 2236 927 2245 939 Q 2255 953 2276 957 Q 2293 959 2305 954 Q 2324 946 2339 933 L 2348 921 L 2348 872 Q 2325 858 2286 860 Z " /><path fill="rgb(0,0,0)" stroke="rgb(0,0,0)" stroke-width="0" opacity="1" d="M 2698.5 651 L 2887.5 651 L 2896 657.5 L 2899 664.5 L 2899 700.5 L 2893.5 711 L 2838 729 L 2839.5 731 Q 2875.3 764.2 2874 834.5 Q 2864.7 897.2 2824.5 929 Q 2786.5 965 2714.5 967 L 2641.5 959 Q 2624.5 963 2616 975.5 Q 2608.7 983.7 2611 1001.5 L 2620.5 1017 Q 2628.2 1024.3 2641.5 1026 L 2781.5 1026 L 2807.5 1030 Q 2858.3 1041.2 2887 1074.5 Q 2917.9 1105.1 2915 1169.5 Q 2905.8 1229.8 2867.5 1261 Q 2810.7 1311.7 2700.5 1309 Q 2601 1305.5 2553 1250.5 Q 2539.9 1235.1 2533 1213.5 Q 2527.3 1196.8 2529 1172.5 Q 2536.5 1132 2563.5 1111 L 2584 1096.5 L 2582.5 1093 Q 2554.3 1084.2 2538 1063.5 Q 2513.9 1039.1 2515 989.5 Q 2522.4 940.9 2553.5 916 L 2583 895.5 Q 2555.8 861.7 2556 800.5 Q 2558.1 770.6 2568 748.5 Q 2582.3 715.8 2606.5 693 Q 2639.9 659.4 2698.5 651 Z M 2710 748 Q 2689 751 2677 762 Q 2659 776 2654 803 Q 2651 840 2668 858 Q 2682 875 2709 880 L 2734 879 L 2760 866 Q 2780 850 2782 817 Q 2782 785 2766 769 Q 2749 747 2710 748 Z M 2706 1115 L 2674 1118 Q 2659 1122 2650 1131 Q 2635 1141 2633 1163 Q 2634 1180 2642 1191 Q 2662 1216 2705 1218 Q 2759 1220 2786 1195 Q 2796 1184 2800 1167 Q 2801 1147 2792 1137 Q 2780 1122 2759 1117 L 2748 1115 L 2706 1115 Z " /><path fill="rgb(0,0,0)" stroke="rgb(0,0,0)" stroke-width="0" opacity="1" d="M 3726.5 651 L 3769.5 652 Q 3794.8 656.2 3815.5 665 Q 3856.5 683.5 3884 715.5 Q 3905 739.5 3918 771.5 Q 3932.6 805.4 3931 855.5 Q 3920.3 941.8 3867.5 986 Q 3842.4 1009.4 3807.5 1023 L 3767.5 1033 L 3729.5 1034 Q 3646.2 1022.3 3604 969.5 Q 3578.4 940.6 3565 899.5 L 3557 858.5 L 3557 822.5 Q 3560.7 790.2 3572 765.5 Q 3588.9 727.4 3617.5 701 Q 3656.9 660.9 3726.5 651 Z M 3732 749 Q 3702 754 3686 771 Q 3663 791 3656 828 Q 3654 852 3659 870 Q 3665 891 3678 906 Q 3697 930 3734 936 Q 3754 938 3768 933 Q 3786 928 3799 916 Q 3826 895 3832 853 Q 3833 803 3809 779 Q 3796 762 3775 754 Q 3758 747 3732 749 Z " /><path fill="rgb(0,0,0)" stroke="rgb(0,0,0)" stroke-width="0" opacity="1" d="M 751.5 660 L 835.5 660 L 845 666.5 L 848 673.5 L 848 1011.5 L 840.5 1022 L 834.5 1025 L 751.5 1025 L 741 1017.5 L 738 1010.5 L 738 673.5 L 743.5 664 L 751.5 660 Z " /><path fill="rgb(0,0,0)" stroke="rgb(0,0,0)" stroke-width="0" opacity="1" d="M 1414.5 660 L 1498.5 660 L 1509 667.5 L 1511 671.5 L 1511 1012.5 L 1505.5 1021 L 1497.5 1025 L 1415.5 1025 L 1405 1018.5 L 1402 1012.5 L 1402 671.5 L 1409.5 662 L 1414.5 660 Z " /></svg>